<?xml version="1.0" encoding="UTF-8" standalone="no"?>
<!DOCTYPE svg PUBLIC "-//W3C//DTD SVG 1.1//EN"
 "http://www.w3.org/Graphics/SVG/1.1/DTD/svg11.dtd">
<!-- Generated by graphviz version 2.47.3 (20210619.2315)
 -->
<!-- Title: snakemake_dag Pages: 1 -->
<svg width="823pt" height="620pt"
 viewBox="0.00 0.00 822.97 620.00" xmlns="http://www.w3.org/2000/svg" xmlns:xlink="http://www.w3.org/1999/xlink">
<g id="graph0" class="graph" transform="scale(1 1) rotate(0) translate(4 616)">
<title>snakemake_dag</title>
<polygon fill="white" stroke="transparent" points="-4,4 -4,-616 818.97,-616 818.97,4 -4,4"/>
<!-- 0 -->
<g id="node1" class="node">
<title>0</title>
<path fill="none" stroke="#70d856" stroke-width="2" d="M375,-36C375,-36 345,-36 345,-36 339,-36 333,-30 333,-24 333,-24 333,-12 333,-12 333,-6 339,0 345,0 345,0 375,0 375,0 381,0 387,-6 387,-12 387,-12 387,-24 387,-24 387,-30 381,-36 375,-36"/>
<text text-anchor="middle" x="360" y="-15.5" font-family="sans" font-size="10.00">all</text>
</g>
<!-- 1 -->
<g id="node2" class="node">
<title>1</title>
<path fill="none" stroke="#56b1d8" stroke-width="2" d="M383.5,-108C383.5,-108 336.5,-108 336.5,-108 330.5,-108 324.5,-102 324.5,-96 324.5,-96 324.5,-84 324.5,-84 324.5,-78 330.5,-72 336.5,-72 336.5,-72 383.5,-72 383.5,-72 389.5,-72 395.5,-78 395.5,-84 395.5,-84 395.5,-96 395.5,-96 395.5,-102 389.5,-108 383.5,-108"/>
<text text-anchor="middle" x="360" y="-87.5" font-family="sans" font-size="10.00">summarize</text>
</g>
<!-- 1&#45;&gt;0 -->
<g id="edge1" class="edge">
<title>1&#45;&gt;0</title>
<path fill="none" stroke="grey" stroke-width="2" d="M360,-71.7C360,-63.98 360,-54.71 360,-46.11"/>
<polygon fill="grey" stroke="grey" stroke-width="2" points="363.5,-46.1 360,-36.1 356.5,-46.1 363.5,-46.1"/>
</g>
<!-- 2 -->
<g id="node3" class="node">
<title>2</title>
<path fill="none" stroke="#56d89a" stroke-width="2" d="M644,-180C644,-180 598,-180 598,-180 592,-180 586,-174 586,-168 586,-168 586,-156 586,-156 586,-150 592,-144 598,-144 598,-144 644,-144 644,-144 650,-144 656,-150 656,-156 656,-156 656,-168 656,-168 656,-174 650,-180 644,-180"/>
<text text-anchor="middle" x="621" y="-159.5" font-family="sans" font-size="10.00">G2G_Saige</text>
</g>
<!-- 2&#45;&gt;1 -->
<g id="edge2" class="edge">
<title>2&#45;&gt;1</title>
<path fill="none" stroke="grey" stroke-width="2" d="M585.8,-151.56C539.23,-139.07 457.06,-117.03 405.73,-103.26"/>
<polygon fill="grey" stroke="grey" stroke-width="2" points="406.46,-99.84 395.9,-100.63 404.65,-106.6 406.46,-99.84"/>
</g>
<!-- 3 -->
<g id="node4" class="node">
<title>3</title>
<path fill="none" stroke="#56d8c9" stroke-width="2" d="M778,-252C778,-252 720,-252 720,-252 714,-252 708,-246 708,-240 708,-240 708,-228 708,-228 708,-222 714,-216 720,-216 720,-216 778,-216 778,-216 784,-216 790,-222 790,-228 790,-228 790,-240 790,-240 790,-246 784,-252 778,-252"/>
<text text-anchor="middle" x="749" y="-231.5" font-family="sans" font-size="10.00">pathogen_QC</text>
</g>
<!-- 3&#45;&gt;2 -->
<g id="edge7" class="edge">
<title>3&#45;&gt;2</title>
<path fill="none" stroke="grey" stroke-width="2" d="M717.69,-215.88C700.8,-206.64 679.75,-195.13 661.62,-185.21"/>
<polygon fill="grey" stroke="grey" stroke-width="2" points="662.89,-181.92 652.43,-180.19 659.53,-188.06 662.89,-181.92"/>
</g>
<!-- 4 -->
<g id="node5" class="node">
<title>4</title>
<path fill="none" stroke="#d88556" stroke-width="2" d="M741.5,-468C741.5,-468 686.5,-468 686.5,-468 680.5,-468 674.5,-462 674.5,-456 674.5,-456 674.5,-444 674.5,-444 674.5,-438 680.5,-432 686.5,-432 686.5,-432 741.5,-432 741.5,-432 747.5,-432 753.5,-438 753.5,-444 753.5,-444 753.5,-456 753.5,-456 753.5,-462 747.5,-468 741.5,-468"/>
<text text-anchor="middle" x="714" y="-453" font-family="sans" font-size="10.00">make_aa_tbl</text>
<text text-anchor="middle" x="714" y="-442" font-family="sans" font-size="10.00">gene: PC_C</text>
</g>
<!-- 4&#45;&gt;3 -->
<g id="edge10" class="edge">
<title>4&#45;&gt;3</title>
<path fill="none" stroke="grey" stroke-width="2" d="M753.6,-438.16C774.6,-430.17 798.57,-416.96 811,-396 823.31,-375.25 802.84,-297.71 798,-288 792.78,-277.52 784.84,-267.64 776.87,-259.3"/>
<polygon fill="grey" stroke="grey" stroke-width="2" points="779.18,-256.67 769.62,-252.12 774.26,-261.64 779.18,-256.67"/>
</g>
<!-- 8 -->
<g id="node9" class="node">
<title>8</title>
<path fill="none" stroke="#d8b456" stroke-width="2" d="M790.5,-396C790.5,-396 721.5,-396 721.5,-396 715.5,-396 709.5,-390 709.5,-384 709.5,-384 709.5,-372 709.5,-372 709.5,-366 715.5,-360 721.5,-360 721.5,-360 790.5,-360 790.5,-360 796.5,-360 802.5,-366 802.5,-372 802.5,-372 802.5,-384 802.5,-384 802.5,-390 796.5,-396 790.5,-396"/>
<text text-anchor="middle" x="756" y="-375.5" font-family="sans" font-size="10.00">pathogen_pPCA</text>
</g>
<!-- 4&#45;&gt;8 -->
<g id="edge16" class="edge">
<title>4&#45;&gt;8</title>
<path fill="none" stroke="grey" stroke-width="2" d="M724.38,-431.7C729.26,-423.56 735.19,-413.69 740.58,-404.7"/>
<polygon fill="grey" stroke="grey" stroke-width="2" points="743.59,-406.48 745.74,-396.1 737.59,-402.88 743.59,-406.48"/>
</g>
<!-- 17 -->
<g id="node18" class="node">
<title>17</title>
<path fill="none" stroke="#d8b456" stroke-width="2" d="M379.5,-396C379.5,-396 310.5,-396 310.5,-396 304.5,-396 298.5,-390 298.5,-384 298.5,-384 298.5,-372 298.5,-372 298.5,-366 304.5,-360 310.5,-360 310.5,-360 379.5,-360 379.5,-360 385.5,-360 391.5,-366 391.5,-372 391.5,-372 391.5,-384 391.5,-384 391.5,-390 385.5,-396 379.5,-396"/>
<text text-anchor="middle" x="345" y="-375.5" font-family="sans" font-size="10.00">pathogen_pPCA</text>
</g>
<!-- 4&#45;&gt;17 -->
<g id="edge31" class="edge">
<title>4&#45;&gt;17</title>
<path fill="none" stroke="grey" stroke-width="2" d="M674.35,-434.5C671.21,-433.58 668.07,-432.73 665,-432 552.55,-405.14 517.95,-420.73 401.67,-396.17"/>
<polygon fill="grey" stroke="grey" stroke-width="2" points="402.18,-392.7 391.67,-394 400.7,-399.54 402.18,-392.7"/>
</g>
<!-- 21 -->
<g id="node22" class="node">
<title>21</title>
<path fill="none" stroke="#d8b456" stroke-width="2" d="M490.5,-396C490.5,-396 421.5,-396 421.5,-396 415.5,-396 409.5,-390 409.5,-384 409.5,-384 409.5,-372 409.5,-372 409.5,-366 415.5,-360 421.5,-360 421.5,-360 490.5,-360 490.5,-360 496.5,-360 502.5,-366 502.5,-372 502.5,-372 502.5,-384 502.5,-384 502.5,-390 496.5,-396 490.5,-396"/>
<text text-anchor="middle" x="456" y="-375.5" font-family="sans" font-size="10.00">pathogen_pPCA</text>
</g>
<!-- 4&#45;&gt;21 -->
<g id="edge42" class="edge">
<title>4&#45;&gt;21</title>
<path fill="none" stroke="grey" stroke-width="2" d="M674.25,-434.89C671.13,-433.88 668.02,-432.9 665,-432 613.88,-416.68 554.87,-401.99 512.62,-391.97"/>
<polygon fill="grey" stroke="grey" stroke-width="2" points="513.33,-388.54 502.8,-389.66 511.73,-395.36 513.33,-388.54"/>
</g>
<!-- 25 -->
<g id="node26" class="node">
<title>25</title>
<path fill="none" stroke="#d8b456" stroke-width="2" d="M640.5,-396C640.5,-396 571.5,-396 571.5,-396 565.5,-396 559.5,-390 559.5,-384 559.5,-384 559.5,-372 559.5,-372 559.5,-366 565.5,-360 571.5,-360 571.5,-360 640.5,-360 640.5,-360 646.5,-360 652.5,-366 652.5,-372 652.5,-372 652.5,-384 652.5,-384 652.5,-390 646.5,-396 640.5,-396"/>
<text text-anchor="middle" x="606" y="-375.5" font-family="sans" font-size="10.00">pathogen_pPCA</text>
</g>
<!-- 4&#45;&gt;25 -->
<g id="edge53" class="edge">
<title>4&#45;&gt;25</title>
<path fill="none" stroke="grey" stroke-width="2" d="M687.58,-431.88C673.59,-422.81 656.22,-411.55 641.11,-401.76"/>
<polygon fill="grey" stroke="grey" stroke-width="2" points="642.82,-398.69 632.52,-396.19 639.01,-404.57 642.82,-398.69"/>
</g>
<!-- 5 -->
<g id="node6" class="node">
<title>5</title>
<path fill="none" stroke="#5682d8" stroke-width="2" d="M587,-540C587,-540 549,-540 549,-540 543,-540 537,-534 537,-528 537,-528 537,-516 537,-516 537,-510 543,-504 549,-504 549,-504 587,-504 587,-504 593,-504 599,-510 599,-516 599,-516 599,-528 599,-528 599,-534 593,-540 587,-540"/>
<text text-anchor="middle" x="568" y="-519.5" font-family="sans" font-size="10.00">nextalign</text>
</g>
<!-- 5&#45;&gt;4 -->
<g id="edge12" class="edge">
<title>5&#45;&gt;4</title>
<path fill="none" stroke="grey" stroke-width="2" d="M599.32,-505.98C619.72,-496.2 646.65,-483.29 669.28,-472.44"/>
<polygon fill="grey" stroke="grey" stroke-width="2" points="670.86,-475.56 678.37,-468.08 667.84,-469.25 670.86,-475.56"/>
</g>
<!-- 9 -->
<g id="node10" class="node">
<title>9</title>
<path fill="none" stroke="#d88556" stroke-width="2" d="M450.5,-468C450.5,-468 395.5,-468 395.5,-468 389.5,-468 383.5,-462 383.5,-456 383.5,-456 383.5,-444 383.5,-444 383.5,-438 389.5,-432 395.5,-432 395.5,-432 450.5,-432 450.5,-432 456.5,-432 462.5,-438 462.5,-444 462.5,-444 462.5,-456 462.5,-456 462.5,-462 456.5,-468 450.5,-468"/>
<text text-anchor="middle" x="423" y="-453" font-family="sans" font-size="10.00">make_aa_tbl</text>
<text text-anchor="middle" x="423" y="-442" font-family="sans" font-size="10.00">gene: S</text>
</g>
<!-- 5&#45;&gt;9 -->
<g id="edge20" class="edge">
<title>5&#45;&gt;9</title>
<path fill="none" stroke="grey" stroke-width="2" d="M536.89,-505.98C516.63,-496.2 489.89,-483.29 467.41,-472.44"/>
<polygon fill="grey" stroke="grey" stroke-width="2" points="468.91,-469.28 458.39,-468.08 465.87,-475.58 468.91,-469.28"/>
</g>
<!-- 10 -->
<g id="node11" class="node">
<title>10</title>
<path fill="none" stroke="#d88556" stroke-width="2" d="M547.5,-468C547.5,-468 492.5,-468 492.5,-468 486.5,-468 480.5,-462 480.5,-456 480.5,-456 480.5,-444 480.5,-444 480.5,-438 486.5,-432 492.5,-432 492.5,-432 547.5,-432 547.5,-432 553.5,-432 559.5,-438 559.5,-444 559.5,-444 559.5,-456 559.5,-456 559.5,-462 553.5,-468 547.5,-468"/>
<text text-anchor="middle" x="520" y="-453" font-family="sans" font-size="10.00">make_aa_tbl</text>
<text text-anchor="middle" x="520" y="-442" font-family="sans" font-size="10.00">gene: X</text>
</g>
<!-- 5&#45;&gt;10 -->
<g id="edge21" class="edge">
<title>5&#45;&gt;10</title>
<path fill="none" stroke="grey" stroke-width="2" d="M556.13,-503.7C550.5,-495.47 543.65,-485.48 537.43,-476.42"/>
<polygon fill="grey" stroke="grey" stroke-width="2" points="540.27,-474.37 531.73,-468.1 534.5,-478.33 540.27,-474.37"/>
</g>
<!-- 11 -->
<g id="node12" class="node">
<title>11</title>
<path fill="none" stroke="#d88556" stroke-width="2" d="M644.5,-468C644.5,-468 589.5,-468 589.5,-468 583.5,-468 577.5,-462 577.5,-456 577.5,-456 577.5,-444 577.5,-444 577.5,-438 583.5,-432 589.5,-432 589.5,-432 644.5,-432 644.5,-432 650.5,-432 656.5,-438 656.5,-444 656.5,-444 656.5,-456 656.5,-456 656.5,-462 650.5,-468 644.5,-468"/>
<text text-anchor="middle" x="617" y="-453" font-family="sans" font-size="10.00">make_aa_tbl</text>
<text text-anchor="middle" x="617" y="-442" font-family="sans" font-size="10.00">gene: Pol</text>
</g>
<!-- 5&#45;&gt;11 -->
<g id="edge22" class="edge">
<title>5&#45;&gt;11</title>
<path fill="none" stroke="grey" stroke-width="2" d="M580.11,-503.7C585.87,-495.47 592.86,-485.48 599.21,-476.42"/>
<polygon fill="grey" stroke="grey" stroke-width="2" points="602.16,-478.3 605.03,-468.1 596.42,-474.29 602.16,-478.3"/>
</g>
<!-- 6 -->
<g id="node7" class="node">
<title>6</title>
<path fill="none" stroke="#d85656" stroke-width="2" d="M597.5,-612C597.5,-612 538.5,-612 538.5,-612 532.5,-612 526.5,-606 526.5,-600 526.5,-600 526.5,-588 526.5,-588 526.5,-582 532.5,-576 538.5,-576 538.5,-576 597.5,-576 597.5,-576 603.5,-576 609.5,-582 609.5,-588 609.5,-588 609.5,-600 609.5,-600 609.5,-606 603.5,-612 597.5,-612"/>
<text text-anchor="middle" x="568" y="-591.5" font-family="sans" font-size="10.00">expand_fasta</text>
</g>
<!-- 6&#45;&gt;5 -->
<g id="edge13" class="edge">
<title>6&#45;&gt;5</title>
<path fill="none" stroke="grey" stroke-width="2" d="M568,-575.7C568,-567.98 568,-558.71 568,-550.11"/>
<polygon fill="grey" stroke="grey" stroke-width="2" points="571.5,-550.1 568,-540.1 564.5,-550.1 571.5,-550.1"/>
</g>
<!-- 7 -->
<g id="node8" class="node">
<title>7</title>
<path fill="none" stroke="#ced856" stroke-width="2" d="M777,-324C777,-324 721,-324 721,-324 715,-324 709,-318 709,-312 709,-312 709,-300 709,-300 709,-294 715,-288 721,-288 721,-288 777,-288 777,-288 783,-288 789,-294 789,-300 789,-300 789,-312 789,-312 789,-318 783,-324 777,-324"/>
<text text-anchor="middle" x="749" y="-303.5" font-family="sans" font-size="10.00">merge_covar</text>
</g>
<!-- 7&#45;&gt;2 -->
<g id="edge9" class="edge">
<title>7&#45;&gt;2</title>
<path fill="none" stroke="grey" stroke-width="2" d="M732.63,-287.96C722.78,-277.64 710.06,-264.17 699,-252 679.58,-230.65 657.99,-205.93 642.45,-187.97"/>
<polygon fill="grey" stroke="grey" stroke-width="2" points="644.95,-185.51 635.77,-180.23 639.65,-190.08 644.95,-185.51"/>
</g>
<!-- 7&#45;&gt;3 -->
<g id="edge11" class="edge">
<title>7&#45;&gt;3</title>
<path fill="none" stroke="grey" stroke-width="2" d="M749,-287.7C749,-279.98 749,-270.71 749,-262.11"/>
<polygon fill="grey" stroke="grey" stroke-width="2" points="752.5,-262.1 749,-252.1 745.5,-262.1 752.5,-262.1"/>
</g>
<!-- 8&#45;&gt;7 -->
<g id="edge14" class="edge">
<title>8&#45;&gt;7</title>
<path fill="none" stroke="grey" stroke-width="2" d="M754.27,-359.7C753.5,-351.98 752.57,-342.71 751.71,-334.11"/>
<polygon fill="grey" stroke="grey" stroke-width="2" points="755.19,-333.71 750.71,-324.1 748.22,-334.4 755.19,-333.71"/>
</g>
<!-- 9&#45;&gt;8 -->
<g id="edge17" class="edge">
<title>9&#45;&gt;8</title>
<path fill="none" stroke="grey" stroke-width="2" d="M462.66,-434.41C465.47,-433.55 468.27,-432.73 471,-432 481.98,-429.05 619.56,-403.84 699.47,-389.28"/>
<polygon fill="grey" stroke="grey" stroke-width="2" points="700.18,-392.71 709.4,-387.47 698.93,-385.82 700.18,-392.71"/>
</g>
<!-- 15 -->
<g id="node16" class="node">
<title>15</title>
<path fill="none" stroke="#56d8c9" stroke-width="2" d="M250,-252C250,-252 192,-252 192,-252 186,-252 180,-246 180,-240 180,-240 180,-228 180,-228 180,-222 186,-216 192,-216 192,-216 250,-216 250,-216 256,-216 262,-222 262,-228 262,-228 262,-240 262,-240 262,-246 256,-252 250,-252"/>
<text text-anchor="middle" x="221" y="-231.5" font-family="sans" font-size="10.00">pathogen_QC</text>
</g>
<!-- 9&#45;&gt;15 -->
<g id="edge27" class="edge">
<title>9&#45;&gt;15</title>
<path fill="none" stroke="grey" stroke-width="2" d="M383.23,-444.93C327.4,-438.31 230.23,-423.13 209,-396 178.81,-357.43 195.43,-296.49 209.02,-261.7"/>
<polygon fill="grey" stroke="grey" stroke-width="2" points="212.36,-262.79 212.91,-252.21 205.88,-260.14 212.36,-262.79"/>
</g>
<!-- 9&#45;&gt;17 -->
<g id="edge32" class="edge">
<title>9&#45;&gt;17</title>
<path fill="none" stroke="grey" stroke-width="2" d="M403.72,-431.7C394.08,-423.05 382.27,-412.45 371.77,-403.03"/>
<polygon fill="grey" stroke="grey" stroke-width="2" points="373.84,-400.18 364.06,-396.1 369.16,-405.39 373.84,-400.18"/>
</g>
<!-- 9&#45;&gt;21 -->
<g id="edge43" class="edge">
<title>9&#45;&gt;21</title>
<path fill="none" stroke="grey" stroke-width="2" d="M431.16,-431.7C434.91,-423.73 439.45,-414.1 443.62,-405.26"/>
<polygon fill="grey" stroke="grey" stroke-width="2" points="446.84,-406.64 447.94,-396.1 440.51,-403.66 446.84,-406.64"/>
</g>
<!-- 9&#45;&gt;25 -->
<g id="edge54" class="edge">
<title>9&#45;&gt;25</title>
<path fill="none" stroke="grey" stroke-width="2" d="M462.71,-433.81C488.87,-423.8 523.45,-410.58 552.09,-399.62"/>
<polygon fill="grey" stroke="grey" stroke-width="2" points="553.46,-402.84 561.55,-396 550.96,-396.31 553.46,-402.84"/>
</g>
<!-- 10&#45;&gt;8 -->
<g id="edge18" class="edge">
<title>10&#45;&gt;8</title>
<path fill="none" stroke="grey" stroke-width="2" d="M559.74,-434.7C562.53,-433.76 565.3,-432.86 568,-432 611.91,-418.05 662.16,-403.98 699.66,-393.85"/>
<polygon fill="grey" stroke="grey" stroke-width="2" points="700.65,-397.21 709.39,-391.23 698.83,-390.45 700.65,-397.21"/>
</g>
<!-- 10&#45;&gt;17 -->
<g id="edge33" class="edge">
<title>10&#45;&gt;17</title>
<path fill="none" stroke="grey" stroke-width="2" d="M480.29,-433.12C455.68,-423.27 423.8,-410.52 397.16,-399.86"/>
<polygon fill="grey" stroke="grey" stroke-width="2" points="398.2,-396.51 387.61,-396.04 395.6,-403.01 398.2,-396.51"/>
</g>
<!-- 19 -->
<g id="node20" class="node">
<title>19</title>
<path fill="none" stroke="#56d8c9" stroke-width="2" d="M458,-252C458,-252 400,-252 400,-252 394,-252 388,-246 388,-240 388,-240 388,-228 388,-228 388,-222 394,-216 400,-216 400,-216 458,-216 458,-216 464,-216 470,-222 470,-228 470,-228 470,-240 470,-240 470,-246 464,-252 458,-252"/>
<text text-anchor="middle" x="429" y="-231.5" font-family="sans" font-size="10.00">pathogen_QC</text>
</g>
<!-- 10&#45;&gt;19 -->
<g id="edge38" class="edge">
<title>10&#45;&gt;19</title>
<path fill="none" stroke="grey" stroke-width="2" d="M520.54,-431.78C520.6,-413.48 519.2,-383.95 511,-360 497.92,-321.78 470.43,-283.83 450.89,-259.94"/>
<polygon fill="grey" stroke="grey" stroke-width="2" points="453.45,-257.54 444.35,-252.11 448.07,-262.03 453.45,-257.54"/>
</g>
<!-- 10&#45;&gt;21 -->
<g id="edge44" class="edge">
<title>10&#45;&gt;21</title>
<path fill="none" stroke="grey" stroke-width="2" d="M504.18,-431.7C496.43,-423.22 486.96,-412.86 478.48,-403.58"/>
<polygon fill="grey" stroke="grey" stroke-width="2" points="480.97,-401.12 471.64,-396.1 475.8,-405.85 480.97,-401.12"/>
</g>
<!-- 10&#45;&gt;25 -->
<g id="edge55" class="edge">
<title>10&#45;&gt;25</title>
<path fill="none" stroke="grey" stroke-width="2" d="M541.26,-431.7C552.09,-422.88 565.42,-412.03 577.16,-402.47"/>
<polygon fill="grey" stroke="grey" stroke-width="2" points="579.44,-405.13 584.99,-396.1 575.02,-399.7 579.44,-405.13"/>
</g>
<!-- 11&#45;&gt;8 -->
<g id="edge19" class="edge">
<title>11&#45;&gt;8</title>
<path fill="none" stroke="grey" stroke-width="2" d="M651,-431.88C669.6,-422.51 692.83,-410.81 712.71,-400.8"/>
<polygon fill="grey" stroke="grey" stroke-width="2" points="714.51,-403.81 721.87,-396.19 711.36,-397.56 714.51,-403.81"/>
</g>
<!-- 11&#45;&gt;17 -->
<g id="edge34" class="edge">
<title>11&#45;&gt;17</title>
<path fill="none" stroke="grey" stroke-width="2" d="M577.28,-434.76C574.16,-433.78 571.04,-432.85 568,-432 497.47,-412.29 475.66,-415.02 401.53,-396.28"/>
<polygon fill="grey" stroke="grey" stroke-width="2" points="402.28,-392.86 391.73,-393.75 400.54,-399.64 402.28,-392.86"/>
</g>
<!-- 11&#45;&gt;21 -->
<g id="edge45" class="edge">
<title>11&#45;&gt;21</title>
<path fill="none" stroke="grey" stroke-width="2" d="M577.61,-431.88C555.61,-422.31 527.99,-410.3 504.64,-400.15"/>
<polygon fill="grey" stroke="grey" stroke-width="2" points="505.82,-396.85 495.26,-396.07 503.03,-403.27 505.82,-396.85"/>
</g>
<!-- 23 -->
<g id="node24" class="node">
<title>23</title>
<path fill="none" stroke="#56d8c9" stroke-width="2" d="M628,-252C628,-252 570,-252 570,-252 564,-252 558,-246 558,-240 558,-240 558,-228 558,-228 558,-222 564,-216 570,-216 570,-216 628,-216 628,-216 634,-216 640,-222 640,-228 640,-228 640,-240 640,-240 640,-246 634,-252 628,-252"/>
<text text-anchor="middle" x="599" y="-231.5" font-family="sans" font-size="10.00">pathogen_QC</text>
</g>
<!-- 11&#45;&gt;23 -->
<g id="edge49" class="edge">
<title>11&#45;&gt;23</title>
<path fill="none" stroke="grey" stroke-width="2" d="M636.47,-431.92C645.82,-422.4 656.05,-409.72 661,-396 666.43,-380.95 662.43,-375.94 661,-360 658.1,-327.61 662.51,-317.1 648,-288 642.78,-277.52 634.84,-267.64 626.87,-259.3"/>
<polygon fill="grey" stroke="grey" stroke-width="2" points="629.18,-256.67 619.62,-252.12 624.26,-261.64 629.18,-256.67"/>
</g>
<!-- 11&#45;&gt;25 -->
<g id="edge56" class="edge">
<title>11&#45;&gt;25</title>
<path fill="none" stroke="grey" stroke-width="2" d="M614.28,-431.7C613.07,-423.98 611.61,-414.71 610.26,-406.11"/>
<polygon fill="grey" stroke="grey" stroke-width="2" points="613.7,-405.44 608.69,-396.1 606.78,-406.53 613.7,-405.44"/>
</g>
<!-- 12 -->
<g id="node13" class="node">
<title>12</title>
<path fill="none" stroke="#56d86b" stroke-width="2" d="M268,-396C268,-396 230,-396 230,-396 224,-396 218,-390 218,-384 218,-384 218,-372 218,-372 218,-366 224,-360 230,-360 230,-360 268,-360 268,-360 274,-360 280,-366 280,-372 280,-372 280,-384 280,-384 280,-390 274,-396 268,-396"/>
<text text-anchor="middle" x="249" y="-375.5" font-family="sans" font-size="10.00">host_PCA</text>
</g>
<!-- 12&#45;&gt;7 -->
<g id="edge15" class="edge">
<title>12&#45;&gt;7</title>
<path fill="none" stroke="grey" stroke-width="2" d="M280.13,-362.72C283.09,-361.68 286.08,-360.75 289,-360 444.33,-320.19 489.07,-345.32 648,-324 664.48,-321.79 682.4,-318.93 698.5,-316.18"/>
<polygon fill="grey" stroke="grey" stroke-width="2" points="699.53,-319.55 708.79,-314.4 698.34,-312.66 699.53,-319.55"/>
</g>
<!-- 16 -->
<g id="node17" class="node">
<title>16</title>
<path fill="none" stroke="#ced856" stroke-width="2" d="M302,-324C302,-324 246,-324 246,-324 240,-324 234,-318 234,-312 234,-312 234,-300 234,-300 234,-294 240,-288 246,-288 246,-288 302,-288 302,-288 308,-288 314,-294 314,-300 314,-300 314,-312 314,-312 314,-318 308,-324 302,-324"/>
<text text-anchor="middle" x="274" y="-303.5" font-family="sans" font-size="10.00">merge_covar</text>
</g>
<!-- 12&#45;&gt;16 -->
<g id="edge30" class="edge">
<title>12&#45;&gt;16</title>
<path fill="none" stroke="grey" stroke-width="2" d="M255.18,-359.7C258,-351.81 261.39,-342.3 264.52,-333.55"/>
<polygon fill="grey" stroke="grey" stroke-width="2" points="267.82,-334.7 267.89,-324.1 261.23,-332.34 267.82,-334.7"/>
</g>
<!-- 20 -->
<g id="node21" class="node">
<title>20</title>
<path fill="none" stroke="#ced856" stroke-width="2" d="M445,-324C445,-324 389,-324 389,-324 383,-324 377,-318 377,-312 377,-312 377,-300 377,-300 377,-294 383,-288 389,-288 389,-288 445,-288 445,-288 451,-288 457,-294 457,-300 457,-300 457,-312 457,-312 457,-318 451,-324 445,-324"/>
<text text-anchor="middle" x="417" y="-303.5" font-family="sans" font-size="10.00">merge_covar</text>
</g>
<!-- 12&#45;&gt;20 -->
<g id="edge41" class="edge">
<title>12&#45;&gt;20</title>
<path fill="none" stroke="grey" stroke-width="2" d="M280.43,-363.61C283.33,-362.39 286.22,-361.17 289,-360 314.83,-349.16 343.65,-337.22 367.39,-327.42"/>
<polygon fill="grey" stroke="grey" stroke-width="2" points="368.98,-330.55 376.89,-323.5 366.31,-324.07 368.98,-330.55"/>
</g>
<!-- 24 -->
<g id="node25" class="node">
<title>24</title>
<path fill="none" stroke="#ced856" stroke-width="2" d="M627,-324C627,-324 571,-324 571,-324 565,-324 559,-318 559,-312 559,-312 559,-300 559,-300 559,-294 565,-288 571,-288 571,-288 627,-288 627,-288 633,-288 639,-294 639,-300 639,-300 639,-312 639,-312 639,-318 633,-324 627,-324"/>
<text text-anchor="middle" x="599" y="-303.5" font-family="sans" font-size="10.00">merge_covar</text>
</g>
<!-- 12&#45;&gt;24 -->
<g id="edge52" class="edge">
<title>12&#45;&gt;24</title>
<path fill="none" stroke="grey" stroke-width="2" d="M280.19,-362.93C283.14,-361.85 286.1,-360.85 289,-360 336.78,-345.97 473.88,-325.02 548.74,-314.14"/>
<polygon fill="grey" stroke="grey" stroke-width="2" points="549.47,-317.57 558.87,-312.67 548.47,-310.64 549.47,-317.57"/>
</g>
<!-- 13 -->
<g id="node14" class="node">
<title>13</title>
<path fill="none" stroke="#9fd856" stroke-width="2" d="M111.5,-468C111.5,-468 78.5,-468 78.5,-468 72.5,-468 66.5,-462 66.5,-456 66.5,-456 66.5,-444 66.5,-444 66.5,-438 72.5,-432 78.5,-432 78.5,-432 111.5,-432 111.5,-432 117.5,-432 123.5,-438 123.5,-444 123.5,-444 123.5,-456 123.5,-456 123.5,-462 117.5,-468 111.5,-468"/>
<text text-anchor="middle" x="95" y="-447.5" font-family="sans" font-size="10.00">host_QC</text>
</g>
<!-- 13&#45;&gt;1 -->
<g id="edge6" class="edge">
<title>13&#45;&gt;1</title>
<path fill="none" stroke="grey" stroke-width="2" d="M73.44,-431.78C45.41,-407.28 0,-359.5 0,-307 0,-307 0,-307 0,-233 0,-166.15 217.53,-117.43 314.4,-99.04"/>
<polygon fill="grey" stroke="grey" stroke-width="2" points="315.31,-102.43 324.5,-97.15 314.02,-95.55 315.31,-102.43"/>
</g>
<!-- 13&#45;&gt;2 -->
<g id="edge8" class="edge">
<title>13&#45;&gt;2</title>
<path fill="none" stroke="grey" stroke-width="2" d="M101.32,-431.87C105.1,-421.52 109.94,-408.04 114,-396 140.83,-316.49 105.89,-268.94 171,-216 232.35,-166.11 446.68,-190.9 525,-180 541.64,-177.68 559.81,-174.61 575.82,-171.71"/>
<polygon fill="grey" stroke="grey" stroke-width="2" points="576.79,-175.09 585.99,-169.84 575.52,-168.21 576.79,-175.09"/>
</g>
<!-- 13&#45;&gt;12 -->
<g id="edge23" class="edge">
<title>13&#45;&gt;12</title>
<path fill="none" stroke="grey" stroke-width="2" d="M123.61,-436C147.57,-425.1 182.05,-409.43 208.8,-397.27"/>
<polygon fill="grey" stroke="grey" stroke-width="2" points="210.25,-400.46 217.9,-393.14 207.35,-394.09 210.25,-400.46"/>
</g>
<!-- 14 -->
<g id="node15" class="node">
<title>14</title>
<path fill="none" stroke="#56d89a" stroke-width="2" d="M269,-180C269,-180 223,-180 223,-180 217,-180 211,-174 211,-168 211,-168 211,-156 211,-156 211,-150 217,-144 223,-144 223,-144 269,-144 269,-144 275,-144 281,-150 281,-156 281,-156 281,-168 281,-168 281,-174 275,-180 269,-180"/>
<text text-anchor="middle" x="246" y="-159.5" font-family="sans" font-size="10.00">G2G_Saige</text>
</g>
<!-- 13&#45;&gt;14 -->
<g id="edge25" class="edge">
<title>13&#45;&gt;14</title>
<path fill="none" stroke="grey" stroke-width="2" d="M80.67,-431.57C73.55,-421.76 65.69,-408.92 62,-396 40.01,-319.08 13.89,-279.92 62,-216 78.7,-193.81 152.01,-178 200.9,-169.7"/>
<polygon fill="grey" stroke="grey" stroke-width="2" points="201.63,-173.13 210.93,-168.05 200.49,-166.22 201.63,-173.13"/>
</g>
<!-- 18 -->
<g id="node19" class="node">
<title>18</title>
<path fill="none" stroke="#56d89a" stroke-width="2" d="M383,-180C383,-180 337,-180 337,-180 331,-180 325,-174 325,-168 325,-168 325,-156 325,-156 325,-150 331,-144 337,-144 337,-144 383,-144 383,-144 389,-144 395,-150 395,-156 395,-156 395,-168 395,-168 395,-174 389,-180 383,-180"/>
<text text-anchor="middle" x="360" y="-159.5" font-family="sans" font-size="10.00">G2G_Saige</text>
</g>
<!-- 13&#45;&gt;18 -->
<g id="edge36" class="edge">
<title>13&#45;&gt;18</title>
<path fill="none" stroke="grey" stroke-width="2" d="M88.93,-431.86C75.16,-389.55 46.67,-279 100,-216 127.77,-183.2 248,-189.07 290,-180 298.08,-178.25 306.66,-176.28 314.94,-174.3"/>
<polygon fill="grey" stroke="grey" stroke-width="2" points="315.93,-177.66 324.83,-171.91 314.29,-170.86 315.93,-177.66"/>
</g>
<!-- 22 -->
<g id="node23" class="node">
<title>22</title>
<path fill="none" stroke="#56d89a" stroke-width="2" d="M504,-180C504,-180 458,-180 458,-180 452,-180 446,-174 446,-168 446,-168 446,-156 446,-156 446,-150 452,-144 458,-144 458,-144 504,-144 504,-144 510,-144 516,-150 516,-156 516,-156 516,-168 516,-168 516,-174 510,-180 504,-180"/>
<text text-anchor="middle" x="481" y="-159.5" font-family="sans" font-size="10.00">G2G_Saige</text>
</g>
<!-- 13&#45;&gt;22 -->
<g id="edge47" class="edge">
<title>13&#45;&gt;22</title>
<path fill="none" stroke="grey" stroke-width="2" d="M95.65,-431.67C97.87,-382.84 106.81,-245.73 138,-216 181.18,-174.84 345.27,-190.44 404,-180 414.42,-178.15 425.57,-175.86 436.05,-173.58"/>
<polygon fill="grey" stroke="grey" stroke-width="2" points="436.85,-176.99 445.86,-171.4 435.34,-170.15 436.85,-176.99"/>
</g>
<!-- 14&#45;&gt;1 -->
<g id="edge3" class="edge">
<title>14&#45;&gt;1</title>
<path fill="none" stroke="grey" stroke-width="2" d="M273.89,-143.88C288.79,-134.72 307.33,-123.34 323.38,-113.48"/>
<polygon fill="grey" stroke="grey" stroke-width="2" points="325.31,-116.41 332.01,-108.19 321.65,-110.44 325.31,-116.41"/>
</g>
<!-- 15&#45;&gt;14 -->
<g id="edge24" class="edge">
<title>15&#45;&gt;14</title>
<path fill="none" stroke="grey" stroke-width="2" d="M227.18,-215.7C230,-207.81 233.39,-198.3 236.52,-189.55"/>
<polygon fill="grey" stroke="grey" stroke-width="2" points="239.82,-190.7 239.89,-180.1 233.23,-188.34 239.82,-190.7"/>
</g>
<!-- 16&#45;&gt;14 -->
<g id="edge26" class="edge">
<title>16&#45;&gt;14</title>
<path fill="none" stroke="grey" stroke-width="2" d="M275.44,-287.99C276.52,-269.88 276.92,-240.49 271,-216 268.78,-206.8 264.87,-197.29 260.79,-188.91"/>
<polygon fill="grey" stroke="grey" stroke-width="2" points="263.9,-187.29 256.2,-180.01 257.67,-190.5 263.9,-187.29"/>
</g>
<!-- 16&#45;&gt;15 -->
<g id="edge28" class="edge">
<title>16&#45;&gt;15</title>
<path fill="none" stroke="grey" stroke-width="2" d="M260.9,-287.7C254.61,-279.39 246.95,-269.28 240.04,-260.14"/>
<polygon fill="grey" stroke="grey" stroke-width="2" points="242.78,-257.96 233.95,-252.1 237.2,-262.19 242.78,-257.96"/>
</g>
<!-- 17&#45;&gt;16 -->
<g id="edge29" class="edge">
<title>17&#45;&gt;16</title>
<path fill="none" stroke="grey" stroke-width="2" d="M327.45,-359.7C318.77,-351.14 308.14,-340.66 298.65,-331.3"/>
<polygon fill="grey" stroke="grey" stroke-width="2" points="300.93,-328.63 291.35,-324.1 296.01,-333.62 300.93,-328.63"/>
</g>
<!-- 18&#45;&gt;1 -->
<g id="edge4" class="edge">
<title>18&#45;&gt;1</title>
<path fill="none" stroke="grey" stroke-width="2" d="M360,-143.7C360,-135.98 360,-126.71 360,-118.11"/>
<polygon fill="grey" stroke="grey" stroke-width="2" points="363.5,-118.1 360,-108.1 356.5,-118.1 363.5,-118.1"/>
</g>
<!-- 19&#45;&gt;18 -->
<g id="edge35" class="edge">
<title>19&#45;&gt;18</title>
<path fill="none" stroke="grey" stroke-width="2" d="M411.94,-215.7C403.5,-207.14 393.18,-196.66 383.96,-187.3"/>
<polygon fill="grey" stroke="grey" stroke-width="2" points="386.37,-184.77 376.86,-180.1 381.39,-189.68 386.37,-184.77"/>
</g>
<!-- 20&#45;&gt;18 -->
<g id="edge37" class="edge">
<title>20&#45;&gt;18</title>
<path fill="none" stroke="grey" stroke-width="2" d="M402.02,-287.97C394.06,-278.09 384.77,-265.05 379,-252 370.28,-232.28 365.46,-208.3 362.86,-190.2"/>
<polygon fill="grey" stroke="grey" stroke-width="2" points="366.3,-189.51 361.54,-180.04 359.36,-190.41 366.3,-189.51"/>
</g>
<!-- 20&#45;&gt;19 -->
<g id="edge39" class="edge">
<title>20&#45;&gt;19</title>
<path fill="none" stroke="grey" stroke-width="2" d="M419.97,-287.7C421.29,-279.98 422.88,-270.71 424.35,-262.11"/>
<polygon fill="grey" stroke="grey" stroke-width="2" points="427.83,-262.55 426.07,-252.1 420.93,-261.37 427.83,-262.55"/>
</g>
<!-- 21&#45;&gt;20 -->
<g id="edge40" class="edge">
<title>21&#45;&gt;20</title>
<path fill="none" stroke="grey" stroke-width="2" d="M446.36,-359.7C441.87,-351.64 436.44,-341.89 431.48,-332.98"/>
<polygon fill="grey" stroke="grey" stroke-width="2" points="434.45,-331.14 426.53,-324.1 428.34,-334.54 434.45,-331.14"/>
</g>
<!-- 22&#45;&gt;1 -->
<g id="edge5" class="edge">
<title>22&#45;&gt;1</title>
<path fill="none" stroke="grey" stroke-width="2" d="M451.4,-143.88C435.43,-134.64 415.54,-123.13 398.39,-113.21"/>
<polygon fill="grey" stroke="grey" stroke-width="2" points="400.12,-110.17 389.71,-108.19 396.62,-116.23 400.12,-110.17"/>
</g>
<!-- 23&#45;&gt;22 -->
<g id="edge46" class="edge">
<title>23&#45;&gt;22</title>
<path fill="none" stroke="grey" stroke-width="2" d="M570.13,-215.88C554.71,-206.72 535.52,-195.34 518.9,-185.48"/>
<polygon fill="grey" stroke="grey" stroke-width="2" points="520.36,-182.28 509.98,-180.19 516.79,-188.3 520.36,-182.28"/>
</g>
<!-- 24&#45;&gt;22 -->
<g id="edge48" class="edge">
<title>24&#45;&gt;22</title>
<path fill="none" stroke="grey" stroke-width="2" d="M581.86,-287.75C571.98,-277.59 559.48,-264.34 549,-252 531.36,-231.24 512.67,-206.55 499.35,-188.45"/>
<polygon fill="grey" stroke="grey" stroke-width="2" points="502,-186.15 493.28,-180.14 496.35,-190.28 502,-186.15"/>
</g>
<!-- 24&#45;&gt;23 -->
<g id="edge50" class="edge">
<title>24&#45;&gt;23</title>
<path fill="none" stroke="grey" stroke-width="2" d="M599,-287.7C599,-279.98 599,-270.71 599,-262.11"/>
<polygon fill="grey" stroke="grey" stroke-width="2" points="602.5,-262.1 599,-252.1 595.5,-262.1 602.5,-262.1"/>
</g>
<!-- 25&#45;&gt;24 -->
<g id="edge51" class="edge">
<title>25&#45;&gt;24</title>
<path fill="none" stroke="grey" stroke-width="2" d="M604.27,-359.7C603.5,-351.98 602.57,-342.71 601.71,-334.11"/>
<polygon fill="grey" stroke="grey" stroke-width="2" points="605.19,-333.71 600.71,-324.1 598.22,-334.4 605.19,-333.71"/>
</g>
</g>
</svg>
