<?xml version="1.0" encoding="UTF-8" standalone="no"?>
<!DOCTYPE svg PUBLIC "-//W3C//DTD SVG 1.1//EN"
 "http://www.w3.org/Graphics/SVG/1.1/DTD/svg11.dtd">
<!-- Generated by graphviz version 2.47.3 (20210619.2315)
 -->
<!-- Title: snakemake_dag Pages: 1 -->
<svg width="449pt" height="476pt"
 viewBox="0.00 0.00 448.58 476.00" xmlns="http://www.w3.org/2000/svg" xmlns:xlink="http://www.w3.org/1999/xlink">
<g id="graph0" class="graph" transform="scale(1 1) rotate(0) translate(4 472)">
<title>snakemake_dag</title>
<polygon fill="white" stroke="transparent" points="-4,4 -4,-472 444.58,-472 444.58,4 -4,4"/>
<!-- 0 -->
<g id="node1" class="node">
<title>0</title>
<path fill="none" stroke="#d6d856" stroke-width="2" d="M123.13,-36C123.13,-36 93.13,-36 93.13,-36 87.13,-36 81.13,-30 81.13,-24 81.13,-24 81.13,-12 81.13,-12 81.13,-6 87.13,0 93.13,0 93.13,0 123.13,0 123.13,0 129.13,0 135.13,-6 135.13,-12 135.13,-12 135.13,-24 135.13,-24 135.13,-30 129.13,-36 123.13,-36"/>
<text text-anchor="middle" x="108.13" y="-15.5" font-family="sans" font-size="10.00">all</text>
</g>
<!-- 1 -->
<g id="node2" class="node">
<title>1</title>
<path fill="none" stroke="#569ad8" stroke-width="2" d="M131.63,-108C131.63,-108 84.63,-108 84.63,-108 78.63,-108 72.63,-102 72.63,-96 72.63,-96 72.63,-84 72.63,-84 72.63,-78 78.63,-72 84.63,-72 84.63,-72 131.63,-72 131.63,-72 137.63,-72 143.63,-78 143.63,-84 143.63,-84 143.63,-96 143.63,-96 143.63,-102 137.63,-108 131.63,-108"/>
<text text-anchor="middle" x="108.13" y="-87.5" font-family="sans" font-size="10.00">summarize</text>
</g>
<!-- 1&#45;&gt;0 -->
<g id="edge1" class="edge">
<title>1&#45;&gt;0</title>
<path fill="none" stroke="grey" stroke-width="2" d="M108.13,-71.7C108.13,-63.98 108.13,-54.71 108.13,-46.11"/>
<polygon fill="grey" stroke="grey" stroke-width="2" points="111.63,-46.1 108.13,-36.1 104.63,-46.1 111.63,-46.1"/>
</g>
<!-- 2 -->
<g id="node3" class="node">
<title>2</title>
<path fill="none" stroke="#59d856" stroke-width="2" stroke-dasharray="1,5" d="M74.13,-180C74.13,-180 28.13,-180 28.13,-180 22.13,-180 16.13,-174 16.13,-168 16.13,-168 16.13,-156 16.13,-156 16.13,-150 22.13,-144 28.13,-144 28.13,-144 74.13,-144 74.13,-144 80.13,-144 86.13,-150 86.13,-156 86.13,-156 86.13,-168 86.13,-168 86.13,-174 80.13,-180 74.13,-180"/>
<text text-anchor="middle" x="51.13" y="-159.5" font-family="sans" font-size="10.00">G2G_Saige</text>
</g>
<!-- 2&#45;&gt;1 -->
<g id="edge2" class="edge">
<title>2&#45;&gt;1</title>
<path fill="none" stroke="grey" stroke-width="2" d="M65.22,-143.7C72.05,-135.3 80.38,-125.07 87.88,-115.86"/>
<polygon fill="grey" stroke="grey" stroke-width="2" points="90.6,-118.07 94.2,-108.1 85.17,-113.65 90.6,-118.07"/>
</g>
<!-- 3 -->
<g id="node4" class="node">
<title>3</title>
<path fill="none" stroke="#56d8d8" stroke-width="2" d="M183.13,-252C183.13,-252 33.13,-252 33.13,-252 27.13,-252 21.13,-246 21.13,-240 21.13,-240 21.13,-228 21.13,-228 21.13,-222 27.13,-216 33.13,-216 33.13,-216 183.13,-216 183.13,-216 189.13,-216 195.13,-222 195.13,-228 195.13,-228 195.13,-240 195.13,-240 195.13,-246 189.13,-252 183.13,-252"/>
<text text-anchor="middle" x="108.13" y="-237" font-family="sans" font-size="10.00">pathogen_QC</text>
<text text-anchor="middle" x="108.13" y="-226" font-family="sans" font-size="10.00">variant: gene_PC_C_pos_0015_P</text>
</g>
<!-- 3&#45;&gt;2 -->
<g id="edge4" class="edge">
<title>3&#45;&gt;2</title>
<path fill="none" stroke="grey" stroke-width="2" d="M94.04,-215.7C87.2,-207.3 78.87,-197.07 71.37,-187.86"/>
<polygon fill="grey" stroke="grey" stroke-width="2" points="74.08,-185.65 65.05,-180.1 68.65,-190.07 74.08,-185.65"/>
</g>
<!-- 4 -->
<g id="node5" class="node">
<title>4</title>
<path fill="none" stroke="#d89556" stroke-width="2" d="M160.13,-324C160.13,-324 104.13,-324 104.13,-324 98.13,-324 92.13,-318 92.13,-312 92.13,-312 92.13,-300 92.13,-300 92.13,-294 98.13,-288 104.13,-288 104.13,-288 160.13,-288 160.13,-288 166.13,-288 172.13,-294 172.13,-300 172.13,-300 172.13,-312 172.13,-312 172.13,-318 166.13,-324 160.13,-324"/>
<text text-anchor="middle" x="132.13" y="-303.5" font-family="sans" font-size="10.00">merge_covar</text>
</g>
<!-- 4&#45;&gt;2 -->
<g id="edge6" class="edge">
<title>4&#45;&gt;2</title>
<path fill="none" stroke="grey" stroke-width="2" d="M91.85,-298.81C64.28,-292.25 29.66,-278.91 12.13,-252 -1.03,-231.81 12.64,-206.44 27.3,-187.95"/>
<polygon fill="grey" stroke="grey" stroke-width="2" points="30.03,-190.15 33.78,-180.24 24.67,-185.64 30.03,-190.15"/>
</g>
<!-- 4&#45;&gt;3 -->
<g id="edge7" class="edge">
<title>4&#45;&gt;3</title>
<path fill="none" stroke="grey" stroke-width="2" d="M126.19,-287.7C123.52,-279.9 120.3,-270.51 117.32,-261.83"/>
<polygon fill="grey" stroke="grey" stroke-width="2" points="120.54,-260.43 113.99,-252.1 113.92,-262.7 120.54,-260.43"/>
</g>
<!-- 8 -->
<g id="node9" class="node">
<title>8</title>
<path fill="none" stroke="#59d856" stroke-width="2" stroke-dasharray="1,5" d="M303.13,-180C303.13,-180 257.13,-180 257.13,-180 251.13,-180 245.13,-174 245.13,-168 245.13,-168 245.13,-156 245.13,-156 245.13,-150 251.13,-144 257.13,-144 257.13,-144 303.13,-144 303.13,-144 309.13,-144 315.13,-150 315.13,-156 315.13,-156 315.13,-168 315.13,-168 315.13,-174 309.13,-180 303.13,-180"/>
<text text-anchor="middle" x="280.13" y="-159.5" font-family="sans" font-size="10.00">G2G_Saige</text>
</g>
<!-- 4&#45;&gt;8 -->
<g id="edge13" class="edge">
<title>4&#45;&gt;8</title>
<path fill="none" stroke="grey" stroke-width="2" d="M158.23,-287.95C172.42,-278.16 189.92,-265.21 204.13,-252 225.41,-232.2 246.65,-206.73 261.24,-188.11"/>
<polygon fill="grey" stroke="grey" stroke-width="2" points="264.1,-190.14 267.45,-180.09 258.56,-185.85 264.1,-190.14"/>
</g>
<!-- 9 -->
<g id="node10" class="node">
<title>9</title>
<path fill="none" stroke="#56d8d8" stroke-width="2" d="M413.13,-252C413.13,-252 263.13,-252 263.13,-252 257.13,-252 251.13,-246 251.13,-240 251.13,-240 251.13,-228 251.13,-228 251.13,-222 257.13,-216 263.13,-216 263.13,-216 413.13,-216 413.13,-216 419.13,-216 425.13,-222 425.13,-228 425.13,-228 425.13,-240 425.13,-240 425.13,-246 419.13,-252 413.13,-252"/>
<text text-anchor="middle" x="338.13" y="-237" font-family="sans" font-size="10.00">pathogen_QC</text>
<text text-anchor="middle" x="338.13" y="-226" font-family="sans" font-size="10.00">variant: gene_PC_C_pos_0015_S</text>
</g>
<!-- 4&#45;&gt;9 -->
<g id="edge14" class="edge">
<title>4&#45;&gt;9</title>
<path fill="none" stroke="grey" stroke-width="2" d="M172.33,-291.34C202.39,-281.13 243.97,-266.99 277.98,-255.44"/>
<polygon fill="grey" stroke="grey" stroke-width="2" points="279.46,-258.63 287.81,-252.1 277.21,-252 279.46,-258.63"/>
</g>
<!-- 5 -->
<g id="node6" class="node">
<title>5</title>
<path fill="none" stroke="#56d89a" stroke-width="2" d="M191.63,-396C191.63,-396 122.63,-396 122.63,-396 116.63,-396 110.63,-390 110.63,-384 110.63,-384 110.63,-372 110.63,-372 110.63,-366 116.63,-360 122.63,-360 122.63,-360 191.63,-360 191.63,-360 197.63,-360 203.63,-366 203.63,-372 203.63,-372 203.63,-384 203.63,-384 203.63,-390 197.63,-396 191.63,-396"/>
<text text-anchor="middle" x="157.13" y="-375.5" font-family="sans" font-size="10.00">pathogen_pPCA</text>
</g>
<!-- 5&#45;&gt;4 -->
<g id="edge8" class="edge">
<title>5&#45;&gt;4</title>
<path fill="none" stroke="grey" stroke-width="2" d="M150.95,-359.7C148.13,-351.81 144.73,-342.3 141.61,-333.55"/>
<polygon fill="grey" stroke="grey" stroke-width="2" points="144.89,-332.34 138.23,-324.1 138.3,-334.7 144.89,-332.34"/>
</g>
<!-- 6 -->
<g id="node7" class="node">
<title>6</title>
<path fill="none" stroke="#97d856" stroke-width="2" d="M80.13,-396C80.13,-396 42.13,-396 42.13,-396 36.13,-396 30.13,-390 30.13,-384 30.13,-384 30.13,-372 30.13,-372 30.13,-366 36.13,-360 42.13,-360 42.13,-360 80.13,-360 80.13,-360 86.13,-360 92.13,-366 92.13,-372 92.13,-372 92.13,-384 92.13,-384 92.13,-390 86.13,-396 80.13,-396"/>
<text text-anchor="middle" x="61.13" y="-375.5" font-family="sans" font-size="10.00">host_PCA</text>
</g>
<!-- 6&#45;&gt;4 -->
<g id="edge9" class="edge">
<title>6&#45;&gt;4</title>
<path fill="none" stroke="grey" stroke-width="2" d="M78.68,-359.7C87.36,-351.14 97.99,-340.66 107.47,-331.3"/>
<polygon fill="grey" stroke="grey" stroke-width="2" points="110.11,-333.62 114.78,-324.1 105.2,-328.63 110.11,-333.62"/>
</g>
<!-- 7 -->
<g id="node8" class="node">
<title>7</title>
<path fill="none" stroke="#d85656" stroke-width="2" d="M77.63,-468C77.63,-468 44.63,-468 44.63,-468 38.63,-468 32.63,-462 32.63,-456 32.63,-456 32.63,-444 32.63,-444 32.63,-438 38.63,-432 44.63,-432 44.63,-432 77.63,-432 77.63,-432 83.63,-432 89.63,-438 89.63,-444 89.63,-444 89.63,-456 89.63,-456 89.63,-462 83.63,-468 77.63,-468"/>
<text text-anchor="middle" x="61.13" y="-447.5" font-family="sans" font-size="10.00">host_QC</text>
</g>
<!-- 7&#45;&gt;2 -->
<g id="edge5" class="edge">
<title>7&#45;&gt;2</title>
<path fill="none" stroke="grey" stroke-width="2" d="M44.48,-431.82C36.05,-422.09 26.5,-409.25 21.13,-396 -3.12,-336.23 7.13,-316.37 3.13,-252 2.13,-236.03 -2.63,-230.93 3.13,-216 7.23,-205.36 14.57,-195.53 22.29,-187.3"/>
<polygon fill="grey" stroke="grey" stroke-width="2" points="24.8,-189.75 29.42,-180.21 19.86,-184.78 24.8,-189.75"/>
</g>
<!-- 7&#45;&gt;6 -->
<g id="edge10" class="edge">
<title>7&#45;&gt;6</title>
<path fill="none" stroke="grey" stroke-width="2" d="M61.13,-431.7C61.13,-423.98 61.13,-414.71 61.13,-406.11"/>
<polygon fill="grey" stroke="grey" stroke-width="2" points="64.63,-406.1 61.13,-396.1 57.63,-406.1 64.63,-406.1"/>
</g>
<!-- 7&#45;&gt;8 -->
<g id="edge12" class="edge">
<title>7&#45;&gt;8</title>
<path fill="none" stroke="grey" stroke-width="2" d="M89.74,-444.61C163.99,-431.46 362.02,-384.72 434.13,-252 441.76,-237.94 443.42,-229.03 434.13,-216 409.69,-181.75 361.63,-169.41 325.66,-165.08"/>
<polygon fill="grey" stroke="grey" stroke-width="2" points="325.71,-161.56 315.4,-164.02 324.99,-168.53 325.71,-161.56"/>
</g>
<!-- 8&#45;&gt;1 -->
<g id="edge3" class="edge">
<title>8&#45;&gt;1</title>
<path fill="none" stroke="grey" stroke-width="2" d="M244.9,-146.67C218.41,-135.88 181.91,-121.03 153.28,-109.37"/>
<polygon fill="grey" stroke="grey" stroke-width="2" points="154.47,-106.08 143.89,-105.56 151.84,-112.57 154.47,-106.08"/>
</g>
<!-- 9&#45;&gt;8 -->
<g id="edge11" class="edge">
<title>9&#45;&gt;8</title>
<path fill="none" stroke="grey" stroke-width="2" d="M323.79,-215.7C316.84,-207.3 308.36,-197.07 300.73,-187.86"/>
<polygon fill="grey" stroke="grey" stroke-width="2" points="303.37,-185.57 294.3,-180.1 297.98,-190.04 303.37,-185.57"/>
</g>
</g>
</svg>
